<?xml version="1.0" standalone="no"?>
<!DOCTYPE svg PUBLIC "-//W3C//DTD SVG 20010904//EN"
 "http://www.w3.org/TR/2001/REC-SVG-20010904/DTD/svg10.dtd">
<svg version="1.0" xmlns="http://www.w3.org/2000/svg"
 width="512.000000pt" height="512.000000pt" viewBox="0 0 512.000000 512.000000"
 preserveAspectRatio="xMidYMid meet">
<metadata>
Created by potrace 1.14, written by Peter Selinger 2001-2017
</metadata>
<g transform="translate(0.000000,512.000000) scale(0.100000,-0.100000)"
fill="#000000" stroke="none">
<path d="M2194 5100 c-132 -35 -238 -104 -321 -210 l-46 -59 -471 -3 c-541 -4
-537 -3 -681 -99 -128 -86 -225 -229 -256 -374 -9 -47 -12 -472 -12 -1930 0
-1029 3 -1890 6 -1915 33 -218 186 -399 408 -481 l64 -24 995 -2 c1081 -3
1057 -4 1172 52 53 26 86 28 182 9 11 -2 38 -6 60 -10 22 -3 44 -8 49 -11 4
-2 52 -6 105 -9 183 -7 325 48 451 174 107 108 157 216 185 406 7 42 43 245
51 286 3 14 8 41 11 60 2 19 7 46 10 60 2 14 6 36 9 50 2 14 9 54 15 90 7 36
14 76 16 90 3 14 12 61 20 105 9 44 18 96 20 115 3 19 9 55 14 80 5 25 12 59
14 75 3 17 9 55 15 85 6 30 24 132 40 225 17 94 41 233 55 310 65 361 127 713
132 740 2 17 18 104 34 195 16 91 32 179 35 195 2 17 9 55 15 85 6 30 13 73
16 95 3 22 7 46 10 54 3 8 7 30 10 50 3 20 11 70 19 111 88 457 87 542 -8 725
-38 72 -152 190 -222 229 -52 28 -139 61 -191 70 -28 6 -179 32 -239 42 -16 3
-48 9 -70 14 -22 5 -60 11 -85 15 -25 3 -65 10 -90 15 -25 5 -126 23 -225 40
-99 17 -200 35 -225 40 -25 5 -85 16 -135 25 -49 8 -101 17 -115 20 -14 3 -65
12 -115 21 -49 8 -151 26 -225 40 -74 14 -151 27 -170 30 -19 3 -42 7 -50 10
-8 3 -60 7 -115 9 -76 3 -117 0 -171 -15z m1156 -474 c116 -20 111 -19 290
-51 80 -15 156 -28 170 -30 26 -4 68 -11 110 -20 22 -4 139 -25 234 -41 124
-21 229 -131 237 -249 3 -34 -5 -108 -16 -165 -2 -8 -17 -96 -35 -195 -17 -99
-33 -191 -36 -205 -2 -14 -6 -38 -9 -55 -3 -16 -17 -93 -31 -170 -33 -186 -43
-243 -50 -285 -3 -19 -7 -42 -9 -50 -3 -8 -7 -33 -10 -55 -5 -33 -12 -69 -20
-105 -1 -3 -5 -30 -10 -60 -5 -30 -9 -57 -10 -60 -1 -3 -5 -25 -9 -50 -4 -25
-14 -76 -21 -115 -7 -38 -16 -88 -19 -109 -4 -21 -8 -48 -11 -60 -2 -12 -7
-37 -10 -56 -2 -19 -7 -46 -10 -60 -2 -14 -7 -36 -10 -50 -2 -14 -7 -41 -11
-60 -3 -19 -10 -57 -14 -85 -8 -45 -49 -278 -64 -365 -4 -19 -11 -62 -17 -95
-6 -33 -13 -71 -15 -85 -3 -14 -15 -86 -29 -160 -13 -74 -27 -151 -30 -170 -3
-19 -14 -82 -25 -140 -11 -58 -40 -222 -65 -364 -51 -287 -66 -330 -136 -390
-60 -51 -125 -70 -213 -62 -39 3 -75 6 -80 6 -4 0 -5 8 -1 18 34 89 38 129 40
490 1 199 5 365 9 370 12 11 216 229 250 266 41 45 66 88 66 114 0 42 -30 90
-67 107 -61 29 -97 16 -182 -69 l-76 -76 0 171 1 171 225 227 c191 192 227
233 233 264 12 65 -34 132 -95 137 -63 5 -71 0 -213 -140 -78 -77 -144 -140
-147 -140 -2 0 -4 80 -3 178 l0 178 297 297 c324 325 334 338 304 409 -26 62
-101 92 -157 63 -14 -7 -118 -106 -232 -221 -115 -114 -208 -203 -209 -198 -1
5 -2 95 -3 199 l-2 190 373 376 c249 250 373 383 374 397 1 12 1 31 1 42 0 34
-1 38 -28 69 -27 33 -76 48 -121 36 -18 -4 -126 -104 -308 -286 -154 -153
-283 -279 -285 -279 -3 0 -5 128 -5 284 1 309 -5 363 -51 468 -23 53 -62 117
-84 138 -15 15 -34 43 -25 38 6 -3 53 -13 105 -22z m-452 -130 c67 -23 134
-83 163 -148 l24 -53 0 -1875 c0 -1828 0 -1876 -19 -1925 -28 -71 -97 -136
-169 -159 -54 -17 -116 -18 -985 -18 -510 0 -942 3 -961 6 -103 20 -193 106
-216 211 -8 36 -11 571 -10 1895 1 2080 -6 1906 78 1993 52 52 105 78 177 86
30 3 463 5 961 5 819 -1 912 -3 957 -18z"/>
<path d="M984 4351 c-100 -45 -153 -162 -123 -269 17 -60 89 -136 144 -151 91
-25 164 -8 228 52 120 113 84 309 -70 374 -46 19 -131 16 -179 -6z m159 -146
c52 -53 13 -145 -63 -145 -44 0 -90 39 -90 76 0 86 93 128 153 69z"/>
<path d="M1831 3359 c-15 -9 -37 -30 -48 -46 -11 -15 -66 -179 -123 -363 -56
-184 -135 -443 -175 -575 -40 -132 -90 -294 -110 -360 -20 -66 -58 -192 -85
-280 -59 -194 -61 -204 -47 -250 13 -45 78 -104 115 -107 15 0 34 -2 42 -3 23
-2 82 23 107 47 26 24 26 25 114 308 l66 215 220 1 221 0 32 -105 c18 -58 33
-113 35 -121 2 -8 10 -35 18 -60 9 -25 25 -79 37 -120 27 -92 48 -122 103
-149 97 -47 204 12 221 121 5 30 -44 202 -250 890 -140 469 -263 869 -271 889
-23 53 -85 90 -146 88 -26 -2 -60 -10 -76 -20z m119 -817 c16 -53 40 -135 54
-182 14 -47 26 -87 26 -90 0 -3 -54 -5 -120 -5 -73 0 -120 4 -120 10 0 8 26
94 91 302 10 34 19 70 19 80 1 17 1 17 11 0 6 -10 24 -62 39 -115z"/>
<path d="M2700 864 c-128 -38 -197 -187 -141 -310 49 -109 209 -167 307 -111
77 44 114 103 121 192 4 48 1 69 -17 108 -48 103 -161 153 -270 121z m126
-156 c36 -37 36 -83 -1 -122 -27 -30 -62 -33 -105 -11 -45 23 -57 90 -23 127
38 43 91 45 129 6z"/>
</g>
</svg>
